<?xml version="1.0" standalone="no"?>
<!DOCTYPE svg PUBLIC "-//W3C//DTD SVG 20010904//EN"
 "http://www.w3.org/TR/2001/REC-SVG-20010904/DTD/svg10.dtd">
<svg version="1.0" xmlns="http://www.w3.org/2000/svg"
 width="260.000000pt" height="260.000000pt" viewBox="0 0 260.000000 260.000000"
 preserveAspectRatio="xMidYMid meet">

<g transform="translate(0.000000,260.000000) scale(0.100000,-0.100000)"
fill="#000000" stroke="none">
<path d="M445 2098 c-9 -29 -108 -868 -103 -873 8 -8 650 302 664 320 6 8 39
89 74 179 35 91 66 163 70 161 4 -3 26 -51 50 -107 23 -57 46 -107 50 -112 8
-8 670 302 693 324 5 4 6 33 2 64 l-7 56 -744 0 c-587 0 -746 -3 -749 -12z"/>
<path d="M1840 836 c-234 -107 -826 -375 -1085 -491 -82 -37 -154 -71 -160
-76 -5 -5 327 -9 773 -9 619 0 782 3 782 13 0 6 -7 68 -15 137 -8 69 -21 197
-30 285 -19 197 -25 245 -34 245 -3 -1 -107 -47 -231 -104z"/>
</g>
</svg>
